<?xml version="1.0" encoding="UTF-8"?>
<svg width="148px" height="91px" viewBox="0 0 148 91" version="1.1" xmlns="http://www.w3.org/2000/svg" xmlns:xlink="http://www.w3.org/1999/xlink">
    <!-- Generator: Sketch 47.1 (45422) - http://www.bohemiancoding.com/sketch -->
    <title>rcu_logo</title>
    <desc>Created with Sketch.</desc>
    <defs></defs>
    <g id="Page-1" stroke="none" stroke-width="1" fill="none" fill-rule="evenodd">
        <g id="rcu_logo" fill-rule="nonzero" fill="#000000">
            <g id="Group">
                <path d="M40.9,18.3 C40.9,26.4 37.7,31.6 31.3,33.9 L44,51.9 L30.2,51.9 L19,35.8 L11.2,35.8 L11.2,51.9 L0,51.9 L0,1.6 L19.1,1.6 C26.9,1.6 32.5,2.9 35.8,5.6 C39.2,8.2 40.9,12.4 40.9,18.3 Z M27.3,24.2 C28.7,23 29.4,21 29.4,18.3 C29.4,15.6 28.7,13.7 27.2,12.7 C25.8,11.7 23.2,11.2 19.6,11.2 L11.2,11.2 L11.2,26.1 L19.4,26.1 C23.3,26.1 25.9,25.5 27.3,24.2 Z" id="Shape"></path>
                <path d="M75.5,41.9 C81,41.9 85.5,39.7 89,35.3 L96.2,42.7 C90.5,49.1 83.8,52.3 76,52.3 C68.2,52.3 61.9,49.9 56.8,45 C51.8,40.1 49.3,33.9 49.3,26.5 C49.3,19 51.9,12.8 57,7.8 C62.1,2.8 68.4,0.3 75.8,0.3 C84.1,0.3 91,3.4 96.5,9.7 L89.5,17.6 C85.9,13.2 81.5,11 76.3,11 C72.1,11 68.5,12.4 65.5,15.1 C62.5,17.9 61,21.6 61,26.3 C61,31 62.4,34.7 65.2,37.6 C68,40.5 71.5,41.9 75.5,41.9 Z" id="Shape"></path>
                <path d="M118.8,38.9 C120.7,41.2 123.2,42.4 126.4,42.4 C129.6,42.4 132.1,41.2 133.9,38.9 C135.7,36.6 136.7,33.4 136.7,29.4 L136.7,1.6 L147.9,1.6 L147.9,29.8 C147.9,37.1 145.9,42.7 141.9,46.6 C137.9,50.5 132.7,52.5 126.4,52.5 C120.1,52.5 114.9,50.5 110.9,46.6 C106.8,42.7 104.8,37.1 104.8,29.8 L104.8,1.6 L116,1.6 L116,29.4 C116,33.4 116.9,36.6 118.8,38.9 Z" id="Shape"></path>
            </g>
            <g id="Group" transform="translate(0.000000, 64.000000)">
                <path d="M19.8,4.6 C22.2,6.8 23.4,9.9 23.4,13.8 C23.4,17.7 22.2,20.8 19.9,23.1 C17.5,25.4 13.9,26.5 9.1,26.5 L0.7,26.5 L0.7,1.3 L9.3,1.3 C13.9,1.4 17.4,2.5 19.8,4.6 Z M19.2,13.9 C19.2,8.1 15.9,5.3 9.3,5.3 L5,5.3 L5,22.5 L9.7,22.5 C12.7,22.5 15.1,21.8 16.7,20.3 C18.4,18.9 19.2,16.7 19.2,13.9 Z" id="Shape"></path>
                <polygon id="Shape" points="48.6 1.4 48.6 5.4 35.2 5.4 35.2 12.1 47.3 12.1 47.3 15.9 35.2 15.9 35.2 22.6 49 22.6 49 26.6 30.9 26.6 30.9 1.4"></polygon>
                <path d="M64.1,4.7 C62.9,4.7 61.9,5 61.1,5.5 C60.3,6 59.9,6.8 59.9,7.8 C59.9,8.8 60.3,9.6 61.1,10.1 C61.9,10.6 63.6,11.2 66.2,11.8 C68.8,12.4 70.7,13.3 72,14.4 C73.3,15.5 74,17.2 74,19.4 C74,21.6 73.2,23.4 71.5,24.7 C69.8,26.1 67.7,26.8 65,26.8 C61.1,26.8 57.6,25.4 54.5,22.7 L57.2,19.5 C59.7,21.7 62.4,22.8 65.1,22.8 C66.5,22.8 67.6,22.5 68.4,21.9 C69.2,21.3 69.6,20.5 69.6,19.6 C69.6,18.6 69.2,17.9 68.5,17.3 C67.7,16.8 66.4,16.3 64.6,15.8 C62.8,15.4 61.3,14.9 60.4,14.6 C59.4,14.2 58.6,13.7 57.8,13.1 C56.3,12 55.6,10.2 55.6,7.9 C55.6,5.6 56.4,3.8 58.1,2.5 C59.8,1.2 61.9,0.6 64.4,0.6 C66,0.6 67.6,0.9 69.2,1.4 C70.8,1.9 72.2,2.7 73.3,3.6 L71,6.8 C70.3,6.1 69.2,5.6 68,5.1 C66.6,4.9 65.3,4.7 64.1,4.7 Z" id="Shape"></path>
                <polygon id="Shape" points="81.1 1.4 85.3 1.4 85.3 26.6 81.1 26.6"></polygon>
                <path d="M111.7,14.3 L115.9,14.3 L115.9,22.9 C113.5,25.5 110.1,26.8 105.7,26.8 C102,26.8 98.9,25.6 96.4,23.1 C93.9,20.7 92.6,17.6 92.6,13.8 C92.6,10.1 93.9,6.9 96.4,4.4 C99,1.9 102,0.7 105.7,0.7 C109.3,0.7 112.3,1.8 114.7,3.9 L112.4,7.1 C111.4,6.3 110.4,5.7 109.4,5.4 C108.4,5.1 107.2,4.9 105.9,4.9 C103.4,4.9 101.2,5.7 99.5,7.4 C97.8,9 96.9,11.2 96.9,13.9 C96.9,16.6 97.7,18.7 99.4,20.3 C101.1,21.9 103.1,22.7 105.5,22.7 C107.9,22.7 109.9,22.2 111.5,21.2 L111.5,14.3 L111.7,14.3 Z" id="Shape"></path>
                <polygon id="Shape" points="142.4 1.4 146.6 1.4 146.6 26.6 142 26.6 127.7 8.2 127.7 26.6 123.5 26.6 123.5 1.4 127.7 1.4 142.3 20.2 142.3 1.4"></polygon>
            </g>
        </g>
    </g>
</svg>