<?xml version="1.0" encoding="utf-8"?>
<!-- Generator: Adobe Illustrator 22.0.1, SVG Export Plug-In . SVG Version: 6.00 Build 0)  -->
<svg version="1.1" id="レイヤー_2" xmlns="http://www.w3.org/2000/svg" xmlns:xlink="http://www.w3.org/1999/xlink" x="0px"
	 y="0px" viewBox="0 0 82.4874 45" style="enable-background:new 0 0 82.4874 45;" xml:space="preserve" width="82.4874" height="45">
<style type="text/css">
	.st0{fill:#FFFFFF;}
</style>
<g>
	<path class="st0" d="M0,19.1335v2.9102h78.6441v0.8792H3.8372C2.2612,22.9229,0,24.1348,0,26.7746v2.9101h82.4874V15.282H3.8372
		C2.2612,15.282,0,16.4939,0,19.1335z M78.6389,26.7941H3.8501c0.0277-0.4412,0.3951-0.7964,0.8438-0.7964h73.9451V26.7941h0.0053
		H78.6389z M4.6938,18.3569h73.9503v0.7963H3.8501C3.8778,18.7104,4.2452,18.3569,4.6938,18.3569z"/>
	<path class="st0" d="M0,34.4155v2.9101h3.844V34.488c0-0.4669,0.383-0.8492,0.8498-0.8492h77.7935V30.564H3.8372
		C2.2612,30.564,0,31.7759,0,34.4155z"/>
	<path class="st0" d="M0,42.0897V45h82.4874v-6.7616H3.8372C2.2612,38.2384,0,39.4501,0,42.0897z M4.6938,41.2799h73.9503v0.7962
		H3.844C3.844,41.6909,4.227,41.2799,4.6938,41.2799z"/>
	<path class="st0" d="M82.4874,0H0v2.9103c0,2.6395,2.2612,3.8514,3.8372,3.8514h74.807v3.7155
		c0,0.4683-0.3823,0.8507-0.8499,0.8507H4.6938c-0.4669,0-0.8498-0.3823-0.8498-0.8507V7.6409H0v2.9101
		c0,2.6397,2.2612,3.8516,3.8372,3.8516h74.807h3.8432v-2.5717h-0.0068l0.0068-0.136V0z M77.7942,3.9255H4.6946
		c-0.4494,0-0.8168-0.355-0.8446-0.7962h74.7888C78.61,3.5704,78.2437,3.9255,77.7942,3.9255z"/>
</g>
</svg>
